<svg xmlns="http://www.w3.org/2000/svg" viewBox="0 0 75.882 75.882">
  <g>
    <g>
      <path d="M37.941,1A36.941,36.941,0,1,0,74.882,37.941,36.982,36.982,0,0,0,37.941,1Z" fill="#f069c2"/>
      <path d="M47.045,53.348a16.04,16.04,0,0,0,7.222-7.669c-3.187,1.582-9.891,2.559-16.984,2.478C30.771,48.082,24.9,47.127,22,45.679h-.383a16.242,16.242,0,0,0,7.9,7.987" fill="#fff"/>
      <path d="M46.9,47.285c0,9.758-4.067,17.668-9.084,17.668s-9.085-7.91-9.085-17.668" fill="#fa1e26"/>
    </g>
    <g>
      <circle cx="37.941" cy="37.941" r="36.941" fill="none" stroke="#000" stroke-miterlimit="10" stroke-width="2"/>
      <path d="M44.365,31.075a11.527,11.527,0,0,1,7.885-2.628,11.368,11.368,0,0,1,6.57,2.628" fill="none" stroke="#000" stroke-linecap="round" stroke-linejoin="round" stroke-width="2"/>
      <path d="M29.511,53.666a16.25,16.25,0,0,1-7.9-7.987m32.653,0a16.038,16.038,0,0,1-7.223,7.669M22,45.679c2.9,1.449,8.774,2.4,15.286,2.478,7.093.081,13.8-.895,16.984-2.478" fill="none" stroke="#000" stroke-linecap="round" stroke-linejoin="round" stroke-width="2"/>
      <path d="M47.031,47.285c0,9.758-4.067,17.668-9.085,17.668s-9.084-7.91-9.084-17.668" fill="none" stroke="#000" stroke-miterlimit="10" stroke-width="2"/>
      <path d="M28.3,29.91a4.819,4.819,0,1,1-4.818-4.818A4.821,4.821,0,0,1,28.3,29.91"/>
    </g>
  </g>
</svg>
