<?xml version="1.0" encoding="utf-8"?>
<!-- Generator: Adobe Illustrator 26.0.1, SVG Export Plug-In . SVG Version: 6.00 Build 0)  -->
<svg version="1.1" id="Layer_1" xmlns="http://www.w3.org/2000/svg" xmlns:xlink="http://www.w3.org/1999/xlink" x="0px" y="0px"
	 viewBox="0 0 302.4 294" style="enable-background:new 0 0 302.4 294;" xml:space="preserve">
<style type="text/css">
	.st0{fill:#FC8621;}
	.st1{fill:none;stroke:#000000;stroke-width:2;stroke-linecap:round;stroke-linejoin:round;}
	.st2{fill:none;stroke:#000000;stroke-width:2;stroke-linecap:round;stroke-miterlimit:10;}
	.st3{fill:#F069C2;}
	.st4{fill:#FFFFFF;}
	.st5{fill:#FA1E26;}
	.st6{fill:none;stroke:#000000;stroke-width:2;stroke-miterlimit:10;}
	.st7{fill:none;stroke:#000000;stroke-width:2;stroke-linecap:round;stroke-linejoin:round;stroke-miterlimit:10;}
	.st8{fill:#00B7FB;}
	.st9{fill:#E15744;}
	.st10{fill:#00E871;stroke:#FFCB05;stroke-miterlimit:10;}
	.st11{fill:#0086EB;}
	.st12{fill:#C3F243;}
	.st13{fill:#FFCB05;}
	.st14{fill:#9B93EB;}
</style>
<g>
	<g id="color_00000160159598813046546450000005778838789764323518_">
		<circle class="st0" cx="264.5" cy="254.3" r="36.9"/>
	</g>
	<g id="line_00000173123495009425638040000017983405241473583801_">
		<circle class="st1" cx="264.5" cy="254.3" r="36.9"/>
		<path class="st1" d="M280.2,269.1c-9.2,7.5-22.4,7.5-31.5,0"/>
		<path class="st2" d="M257.5,250.1c-1.7-3.8-6.2-5.6-10-3.9c-1.7,0.8-3.1,2.1-3.9,3.9"/>
		<path class="st2" d="M285.2,250.1c-1.7-3.8-6.2-5.6-10-3.9c-1.7,0.8-3.1,2.1-3.9,3.9"/>
	</g>
</g>
<g>
	<g id="color_00000014629497487222734840000005330337441971080622_">
		<path class="st3" d="M151.2,217.4c-20.4,0-36.9,16.6-36.9,36.9c0,20.4,16.6,36.9,36.9,36.9c20.4,0,36.9-16.6,36.9-36.9
			C188.1,233.9,171.6,217.4,151.2,217.4z"/>
		<path class="st4" d="M160.3,269.7c3.2-1.7,5.8-4.4,7.2-7.7c-3.2,1.6-9.9,2.6-17,2.5c-6.5-0.1-12.4-1-15.3-2.5h-0.4
			c1.5,3.5,4.4,6.3,7.9,8"/>
		<path class="st5" d="M160.2,263.7c0,9.8-4.1,17.7-9.1,17.7c-5,0-9.1-7.9-9.1-17.7"/>
	</g>
	<g id="line_00000118373752350109788410000011353437848523009465_">
		<circle class="st6" cx="151.2" cy="254.3" r="36.9"/>
		<path class="st7" d="M157.6,247.4c0.7-0.6,3.6-2.9,7.9-2.6c3.5,0.2,5.8,2,6.6,2.6"/>
		<path class="st7" d="M142.8,270c-3.5-1.7-6.4-4.5-7.9-8 M167.5,262c-1.4,3.2-4,5.9-7.2,7.7 M135.3,262c2.9,1.4,8.8,2.4,15.3,2.5
			c7.1,0.1,13.8-0.9,17-2.5"/>
		<path class="st6" d="M160.3,263.7c0,9.8-4.1,17.7-9.1,17.7s-9.1-7.9-9.1-17.7"/>
		<path d="M141.6,246.3c0,2.7-2.2,4.8-4.8,4.8c-2.7,0-4.8-2.2-4.8-4.8c0-2.7,2.2-4.8,4.8-4.8C139.4,241.5,141.6,243.6,141.6,246.3"
			/>
	</g>
</g>
<g>
	<g id="color_00000059293889089801652770000016296536338650693769_">
		<circle class="st5" cx="37.9" cy="147.6" r="36.9"/>
		<path class="st4" d="M61.4,156.7c0,2.5-0.5,4.9-1.4,7.2c-20.1,4.9-40.8,0.5-44.2-0.2c-0.9-2.2-1.4-4.6-1.3-7h0.2
			c0,0,23.8,5.8,46.4,0.1L61.4,156.7z"/>
		<path class="st4" d="M60,163.9c-2.9,6.9-10.2,11.6-22,11.6c-11.9,0-19.3-4.9-22.2-11.8C19.1,164.5,39.9,168.8,60,163.9z"/>
	</g>
	<g id="line_00000085955993014002603900000013645864759890030223_">
		<circle class="st1" cx="37.9" cy="147.6" r="36.9"/>
		<path class="st1" d="M61.4,156.7c0,2.5-0.5,4.9-1.4,7.2c-20.1,4.9-40.8,0.5-44.2-0.2c-0.9-2.2-1.4-4.6-1.3-7h0.2
			c0,0,23.8,5.8,46.4,0.1L61.4,156.7z"/>
		<path class="st1" d="M60,163.9c-2.9,6.9-10.2,11.6-22,11.6c-11.9,0-19.3-4.9-22.2-11.8C19.1,164.5,39.9,168.8,60,163.9z"/>
		<path class="st2" d="M31,141.9c-1.7-3.8-6.2-5.6-10-3.9c-1.7,0.8-3.1,2.1-3.9,3.9"/>
		<path class="st2" d="M58.7,141.9c-1.7-3.8-6.2-5.6-10-3.9c-1.7,0.8-3.1,2.1-3.9,3.9"/>
	</g>
</g>
<g>
	<g id="color_00000036953250331871681240000008608913238897385387_">
		<circle class="st8" cx="150.8" cy="147.6" r="36.9"/>
		<path class="st4" d="M174.3,156.7c0,2.5-0.5,4.9-1.4,7.2c-20.1,4.9-40.8,0.5-44.2-0.2c-0.9-2.2-1.4-4.6-1.3-7h0.2
			c0,0,23.8,5.8,46.4,0.1L174.3,156.7z"/>
		<path class="st9" d="M172.9,163.9c-2.9,6.9-10.2,11.6-22,11.6c-11.9,0-19.3-4.9-22.2-11.8C132,164.5,152.8,168.8,172.9,163.9z"/>
	</g>
	<g id="line_00000005233815205311539060000008530131187338945420_">
		<circle class="st1" cx="150.8" cy="147.6" r="36.9"/>
		<ellipse cx="138.9" cy="139.3" rx="4.8" ry="8.7"/>
		<ellipse cx="162.8" cy="139.3" rx="4.8" ry="8.7"/>
		<path class="st1" d="M174.3,156.7c0,2.5-0.5,4.9-1.4,7.2c-20.1,4.9-40.8,0.5-44.2-0.2c-0.9-2.2-1.4-4.6-1.3-7h0.2
			c0,0,23.8,5.8,46.4,0.1L174.3,156.7z"/>
		<path class="st1" d="M172.9,163.9c-2.9,6.9-10.2,11.6-22,11.6c-11.9,0-19.3-4.9-22.2-11.8C132,164.5,152.8,168.8,172.9,163.9z"/>
	</g>
</g>
<g>
	<g id="color_00000028303553432659810790000006413418120452375736_">
		<circle class="st10" cx="150.9" cy="37.9" r="36.9"/>
		<path class="st4" d="M174.3,47c0,2.5-0.5,4.9-1.4,7.2c-20.1,4.9-40.8,0.5-44.2-0.2c-0.9-2.2-1.4-4.6-1.3-7h0.2
			c0,0,23.8,5.8,46.4,0.1L174.3,47z"/>
		<path class="st9" d="M172.9,54.2c-2.9,6.9-10.2,11.6-22,11.6c-11.9,0-19.3-4.9-22.2-11.8C132.1,54.8,152.8,59.1,172.9,54.2z"/>
	</g>
	<g id="line_00000080908446340228787990000016398423971719966851_">
		<circle class="st1" cx="150.9" cy="37.9" r="36.9"/>
		<path class="st1" d="M174.3,47c0,2.5-0.5,4.9-1.4,7.2c-20.1,4.9-40.8,0.5-44.2-0.2c-0.9-2.2-1.4-4.6-1.3-7h0.2
			c0,0,23.8,5.8,46.4,0.1L174.3,47z"/>
		<path class="st1" d="M172.9,54.2c-2.9,6.9-10.2,11.6-22,11.6c-11.9,0-19.3-4.9-22.2-11.8C132.1,54.8,152.8,59.1,172.9,54.2z"/>
		<path class="st2" d="M143.9,32.2c-1.7-3.8-6.2-5.6-10-3.9c-1.7,0.8-3.1,2.1-3.9,3.9"/>
		<path class="st2" d="M171.7,32.2c-1.7-3.8-6.2-5.6-10-3.9c-1.7,0.8-3.1,2.1-3.9,3.9"/>
	</g>
</g>
<g>
	<g id="color_00000033327095494265174330000006065833533920582528_">
		<circle class="st11" cx="38" cy="39.3" r="36.9"/>
		<path class="st4" d="M61.4,48.3c0,2.5-0.5,4.9-1.4,7.2c-20.1,4.9-40.8,0.5-44.2-0.2c-0.9-2.2-1.4-4.6-1.3-7h0.2
			c0,0,23.8,5.8,46.4,0.1L61.4,48.3z"/>
		<path class="st9" d="M60,55.6c-2.9,6.9-10.2,11.6-22,11.6c-11.9,0-19.3-4.9-22.2-11.8C19.2,56.1,40,60.4,60,55.6z"/>
	</g>
	<g id="line_00000055668118979720906190000005599176526863604881_">
		<polyline class="st1" points="20.6,25.5 31.2,31.9 20.6,37.9 		"/>
		<polyline class="st1" points="55.4,25.5 44.8,31.9 55.4,37.9 		"/>
		<circle class="st1" cx="38" cy="39.3" r="36.9"/>
		<path class="st1" d="M61.4,48.3c0,2.5-0.5,4.9-1.4,7.2c-20.1,4.9-40.8,0.5-44.2-0.2c-0.9-2.2-1.4-4.6-1.3-7h0.2
			c0,0,23.8,5.8,46.4,0.1L61.4,48.3z"/>
		<path class="st1" d="M60,55.6c-2.9,6.9-10.2,11.6-22,11.6c-11.9,0-19.3-4.9-22.2-11.8C19.2,56.1,40,60.4,60,55.6z"/>
	</g>
</g>
<g>
	<g id="color_00000013915992253566817490000003585486659307899818_">
		<circle class="st12" cx="37.9" cy="256" r="36.9"/>
		<polygon id="SVGID_00000146489491430859636930000006102538672468545695_" class="st5" points="41.6,280.1 46.4,278 48.3,275.7 
			48.8,273.1 42.9,273.2 26.9,273.2 29,278 34,280.1 		"/>
	</g>
	<g id="line_00000008831033539504647590000002329572136429743016_">
		<path class="st1" d="M13.3,246.4c0.7-2.4,2.2-4.5,4.3-5.9c2-1.6,4.4-2.4,6.9-2.2"/>
		<path class="st1" d="M62,248.1c-3.6-3.6-9.2-4.4-13.7-1.9"/>
		<path class="st1" d="M48.8,271.7c0,4.7-3.7,8.5-11.1,8.5s-11.2-3.8-11.2-8.5"/>
		<path class="st1" d="M26.6,271.7c0,0,11.3,4,22.1,0.1"/>
		<path class="st1" d="M55.6,255.8c-1.4-0.9-3-1.4-4.6-1.5c-1.8,0-3.5,0.5-5.1,1.2"/>
		<circle cx="25.2" cy="254.9" r="4.8"/>
		<circle class="st1" cx="37.9" cy="256" r="36.9"/>
	</g>
</g>
<g>
	<g id="color_00000151525048062669890230000015298248219872550065_">
		<circle class="st13" cx="263.8" cy="37.9" r="36.9"/>
	</g>
	<g id="line_00000141448087213512013230000008650620926419496610_">
		<circle class="st1" cx="263.8" cy="37.9" r="36.9"/>
		<path class="st1" d="M279.5,52.3c-4.7,2.6-10,4.1-15.8,4.1c-5.7,0-11.1-1.5-15.8-4.1"/>
		<path d="M254.1,29.9c0,2.7-2.2,4.8-4.8,4.8c-2.7,0-4.8-2.2-4.8-4.8c0-2.7,2.2-4.8,4.8-4.8C252,25.1,254.1,27.3,254.1,29.9"/>
		<path d="M283,29.9c0,2.7-2.2,4.8-4.8,4.8c-2.7,0-4.8-2.2-4.8-4.8c0-2.7,2.2-4.8,4.8-4.8C280.9,25.1,283,27.3,283,29.9"/>
	</g>
</g>
<g>
	<g id="color_00000065759632363394439110000009144447464291641273_">
		<circle class="st14" cx="263.7" cy="148" r="36.9"/>
	</g>
	<g id="line_00000119118261027440705680000008001670612055607169_">
		<path class="st7" d="M272.9,160c0,0-5.1,16.9-8.9,0c0,0-4.8,16.8-7.9,0"/>
		<ellipse class="st7" cx="263.7" cy="148" rx="36.9" ry="36.9"/>
		<path class="st2" d="M256.8,142.2c-1.7-3.8-6.2-5.6-10-3.9c-1.7,0.8-3.1,2.1-3.9,3.9"/>
		<path class="st2" d="M284.5,142.2c-1.7-3.8-6.2-5.6-10-3.9c-1.7,0.8-3.1,2.1-3.9,3.9"/>
	</g>
</g>
</svg>
